<svg width="100" height="25" viewBox="0 0 100 25" xmlns="http://www.w3.org/2000/svg"><g fill="none" fill-rule="evenodd"><g fill-rule="nonzero"><g><g><path fill="#006B2D" d="M0 0h77.083v25H0z"/><path d="M11.944 16.597h-1.527a.299.299 0 01-.278-.278v-4.722c0-.625-.208-1.041-.903-1.041-.347 0-.833.138-1.18.347v5.347a.299.299 0 01-.278.278H6.18a.299.299 0 01-.278-.278V9.028c0-.14.139-.278.278-.278h1.388c.14 0 .278.139.278.278v.208c.486-.347 1.18-.694 2.014-.694 1.806 0 2.361 1.041 2.361 2.639v5c0 .277-.139.416-.278.416zm7.848 0h-1.39a.299.299 0 01-.277-.278v-.138c-.486.347-1.18.555-1.875.555-1.528 0-2.5-.694-2.5-2.43 0-1.598 1.042-2.431 2.847-2.431.556 0 .972 0 1.39.07v-.417c0-.695-.348-1.042-1.181-1.042-.834 0-2.153.278-2.153.278-.14 0-.278-.07-.278-.208v-1.32c0-.139.139-.278.278-.347 0 0 1.18-.347 2.5-.347 2.291 0 2.916 1.041 2.916 2.986v4.722c0 .208-.138.347-.277.347zm-1.806-3.194h-1.042c-.763 0-1.041.347-1.041.833s.278.764.903.764c.416 0 .833-.139 1.25-.347l-.07-1.25zm8.056 3.194s-.834.14-1.528.14c-1.458 0-2.292-.765-2.292-2.57v-3.611h-.833a.299.299 0 01-.278-.278v-1.25c0-.14.139-.278.278-.278h.833V7.014c0-.208.14-.278.278-.278h1.528c.139 0 .278.139.278.278V8.75h1.736c.139 0 .277.139.277.278v1.18a.299.299 0 01-.277.278h-1.736v3.403c0 .625.277.903.833.903.347 0 .972-.07.972-.07.208 0 .278.07.278.209v1.388c0 .14-.139.278-.347.278zm7.57 0h-1.39a.299.299 0 01-.278-.278v-.208c-.486.347-1.18.695-2.013.695-1.806 0-2.362-1.042-2.362-2.64V9.029c0-.14.14-.278.278-.278h1.528c.139 0 .278.139.278.278v4.722c0 .625.208 1.042.903 1.042.347 0 .833-.14 1.18-.348V9.028c0-.14.139-.278.278-.278h1.528c.139 0 .277.139.277.278v7.153c.07.277-.069.416-.208.416zm5.832-5.555h-.138c-.625 0-1.112.416-1.459.902v4.375a.299.299 0 01-.278.278h-1.527a.299.299 0 01-.278-.278V9.028c0-.14.139-.278.278-.278h1.389c.138 0 .277.139.277.278v.625c.209-.556.625-1.042 1.459-1.042h.347c.208 0 .278.139.278.278v1.805c-.07.209-.14.348-.348.348zm7.223 5.555h-1.39A.299.299 0 0145 16.32v-.138c-.486.347-1.18.555-1.875.555-1.528 0-2.5-.694-2.5-2.43 0-1.598 1.042-2.431 2.847-2.431.556 0 .972 0 1.39.07v-.417c0-.695-.348-1.042-1.112-1.042-.833 0-2.153.278-2.153.278-.139 0-.278-.07-.278-.208v-1.32c0-.139.14-.278.278-.347 0 0 1.111-.347 2.5-.347 2.292 0 2.917 1.041 2.917 2.986v4.722c-.07.208-.208.347-.347.347zm-1.806-3.194H43.82c-.763 0-1.041.347-1.041.833s.278.764.903.764c.416 0 .833-.139 1.25-.347l-.07-1.25zm6.875 3.194c-.347 0-.903-.07-1.458-.139v2.778a.299.299 0 01-.278.278h-.764a.299.299 0 01-.278-.278V9.028c0-.14.14-.278.278-.278H50c.139 0 .278.139.278.278v.07c.486-.279 1.041-.556 1.736-.556 1.736 0 2.5 1.041 2.5 2.639v2.847c-.07 1.736-.972 2.57-2.778 2.57zm1.389-5.347c0-.833-.347-1.458-1.32-1.458-.486 0-1.11.208-1.597.486v5.139h1.39c1.04 0 1.458-.486 1.458-1.32l.069-2.847zm4.167 5.347h-.764a.299.299 0 01-.278-.278V5.833c0-.139.139-.277.278-.277h.764c.139 0 .277.138.277.277V16.32a.299.299 0 01-.277.278zm7.152 0h-.763a.299.299 0 01-.278-.278v-.138c-.486.347-1.111.625-1.875.625-1.528 0-2.361-.834-2.361-2.292 0-1.667.902-2.361 2.639-2.361.555 0 1.597.07 1.597.07v-.834c0-.903-.347-1.458-1.39-1.458-1.04 0-2.082.277-2.082.277-.209.07-.278-.07-.278-.277v-.625c0-.14.139-.278.278-.348 0 0 .902-.347 2.152-.347 1.875 0 2.64.903 2.64 2.778v4.93c.069.14-.07.278-.279.278zm-1.041-3.403h-1.597c-.973 0-1.32.417-1.32 1.25 0 .695.417 1.112 1.18 1.112.556 0 1.181-.278 1.737-.556v-1.806zm8.472 3.403h-.764a.299.299 0 01-.278-.278v-5c0-.833-.208-1.388-1.18-1.388-.625 0-1.25.277-1.736.555v5.764a.299.299 0 01-.278.278h-.764a.299.299 0 01-.278-.278V9.028c0-.14.14-.278.278-.278h.764c.139 0 .278.139.278.278v.278c.416-.348 1.11-.695 2.014-.695 1.666 0 2.222 1.042 2.222 2.639v5c.07.208-.07.347-.278.347zM77.083 0h22.223v25H77.083z" fill="#FFF"/><path d="M86.736 20.625c-.347.208-.833.208-1.18.208h-1.459v-3.472h1.459c.416 0 1.041 0 1.319.417.139.139.139.347.139.555 0 .348-.208.625-.556.695.417.07.764.416.764.833.07.278-.139.625-.486.764zm-1.111-2.639H85v.695h.556c.277 0 .555 0 .555-.348 0-.347-.208-.347-.486-.347zm.07 1.32H85v.833h.694c.278 0 .556-.07.556-.417.07-.347-.278-.416-.556-.416zm2.152-1.945h.972v3.542h-.972V17.36zm3.334 3.542c-1.112 0-1.806-.764-1.806-1.875s.694-1.875 1.806-1.875c1.11 0 1.805.764 1.805 1.875 0 1.11-.694 1.875-1.805 1.875zm0-2.986c-.625 0-.834.625-.834 1.11 0 .556.209 1.112.834 1.112s.833-.625.833-1.111-.139-1.111-.833-1.111zM82.569 9.93c0-3.195 2.64-5.764 5.764-5.764 3.195 0 5.764 2.639 5.764 5.764 0 3.125-2.639 5.763-5.764 5.763a5.75 5.75 0 01-5.764-5.763z" fill="#27A737"/><path d="M88.403 4.861s-4.93 2.986-1.667 7.917c0 0-1.875-.972-2.292-3.68 0-.14-.138-.279-.277 0-.973 2.777.486 6.18 4.444 6.04 3.958-.138 4.93-4.721 2.847-7.5-.07-.138-.208-.138-.139.07.417 1.459-.277 3.125-.486 3.542 1.25-3.889-2.152-6.32-2.43-6.389" fill="#FFF"/></g></g></g></g></svg>